#!OML:ASF H:\ManfredObstacles\Project 1\Capture day 2\Session 1\male.ASF
:FULLY-SPECIFIED
:DEGREES
299
root 2.42504 8.78223 4.82699 -167.451 -10.6198 176.165
lowerback 46.0327 3.10901 3.02342
upperback 17.6555 -2.06787 4.05599
thorax -1.13818 -3.79384 3.61321
lowerneck -32.7276 -1.84493 0.25119
upperneck 24.1936 -4.29339 4.38745
head 13.7224 -1.18478 0.830642
rclavicle -3.65764e-014 -1.09332e-014
rhumerus 31.781 -2.15222 -71.5792
rradius 38.2385
rwrist 28.3735
rhand -16.1448 -13.3876
rfingers 7.12502
rthumb 10.0605 -43.1271
lclavicle -3.65764e-014 -1.09332e-014
lhumerus 22.1487 -9.59673 71.9482
lradius 43.282
lwrist -35.6976
lhand -14.6031 17.2682
lfingers 7.12502
lthumb 11.5476 46.9301
rfemur -109.74 0.663812 20.6333
rtibia 111.46
rfoot -9.10226 -22.825
rtoes -11.4912
lfemur -58.873 21.1864 -19.1157
ltibia 139.196
lfoot -2.65428 16.305
ltoes -10.1407
300
root 2.44485 8.82702 4.6958 -166.877 -10.7508 175.914
lowerback 46.0193 2.90877 3.1943
upperback 17.5498 -2.15724 3.97883
thorax -1.24891 -3.7865 3.48318
lowerneck -32.7558 -1.81904 0.434352
upperneck 24.107 -4.30068 4.2739
head 13.6834 -1.1876 0.753348
rclavicle -1.11319e-014 3.63776e-014
rhumerus 31.9332 -1.69289 -71.7053
rradius 38.1857
rwrist 28.6112
rhand -16.4527 -14.0278
rfingers 7.12502
rthumb 9.76336 -43.7815
lclavicle -1.11319e-014 3.63776e-014
lhumerus 23.1103 -9.40477 71.7963
lradius 42.6012
lwrist -35.8315
lhand -14.4591 17.1584
lfingers 7.12502
lthumb 11.6864 46.8125
rfemur -109.704 0.70348 20.5457
rtibia 111.914
rfoot -9.98971 -23.0492
rtoes -10.4965
lfemur -58.9166 20.8579 -19.0161
ltibia 138.801
lfoot -2.09619 15.1277
ltoes -9.54756
301
root 2.46511 8.87419 4.5649 -166.325 -10.8759 175.691
lowerback 46.0094 2.7216 3.28752
upperback 17.4483 -2.27422 3.95656
thorax -1.35508 -3.80643 3.4614
lowerneck -32.72 -1.76232 0.543137
upperneck 23.9989 -4.22434 4.1588
head 13.623 -1.16356 0.70505
rclavicle -4.77083e-015 2.22639e-014
rhumerus 32.0835 -1.10896 -71.8532
rradius 38.0698
rwrist 28.964
rhand -16.8735 -14.6572
rfingers 7.12502
rthumb 9.35736 -44.4295
lclavicle -4.77083e-015 2.22639e-014
lhumerus 24.0129 -9.04556 71.7325
lradius 41.8155
lwrist -35.9964
lhand -14.2395 16.9766
lfingers 7.12502
lthumb 11.8982 46.6185
rfemur -109.605 0.748148 20.508
rtibia 112.325
rfoot -10.8926 -23.2959
rtoes -9.61669
lfemur -58.9617 20.5934 -18.8802
ltibia 138.405
lfoot -1.51427 13.9127
ltoes -8.84016
302
root 2.48501 8.92311 4.4343 -165.785 -10.9639 175.491
lowerback 45.9936 2.53955 3.33572
upperback 17.3452 -2.40767 3.92842
thorax -1.46242 -3.83803 3.46232
lowerneck -32.6173 -1.66698 0.66245
upperneck 23.8673 -4.09838 4.04649
head 13.5395 -1.11874 0.666403
rclavicle 4.77083e-015 -2.0276e-014
rhumerus 32.1892 -0.537627 -72.1616
rradius 37.8718
rwrist 29.5268
rhand -17.3962 -15.2204
rfingers 7.12502
rthumb 8.85306 -45.0146
lclavicle 4.77083e-015 -2.0276e-014
lhumerus 24.8495 -8.59264 71.6914
lradius 40.9361
lwrist -36.2394
lhand -13.948 16.7117
lfingers 7.12502
lthumb 12.1793 46.3371
rfemur -109.469 0.820292 20.5083
rtibia 112.695
rfoot -11.8053 -23.5464
rtoes -8.83558
lfemur -59.0134 20.4252 -18.7255
ltibia 138.008
lfoot -0.939356 12.6566
ltoes -8.10162
303
root 2.50449 8.97362 4.30401 -165.25 -11.0042 175.313
lowerback 45.956 2.37847 3.33445
upperback 17.2462 -2.54011 3.89357
thorax -1.56125 -3.87259 3.47979
lowerneck -32.4556 -1.55221 0.792384
upperneck 23.7093 -3.94937 3.9373
head 13.4343 -1.06414 0.631941
rclavicle 2.38542e-015 -1.41137e-014
rhumerus 32.2315 -0.0725495 -72.6948
rradius 37.599
rwrist 30.3517
rhand -17.9857 -15.6739
rfingers 7.12502
rthumb 8.28416 -45.4915
lclavicle 2.38542e-015 -1.41137e-014
lhumerus 25.6387 -8.07591 71.6773
lradius 39.9584
lwrist -36.5625
lhand -13.5872 16.3627
lfingers 7.12502
lthumb 12.5271 45.9672
rfemur -109.304 0.937504 20.5315
rtibia 113.023
rfoot -12.698 -23.807
rtoes -8.25617
lfemur -59.0807 20.3565 -18.5666
ltibia 137.606
lfoot -0.332176 11.3549
ltoes -7.29982
304
root 2.5224 9.026 4.17419 -164.724 -11.0125 175.133
lowerback 45.9121 2.2323 3.32701
upperback 17.1536 -2.65905 3.82851
thorax -1.65331 -3.89892 3.46255
lowerneck -32.2261 -1.4264 0.990157
upperneck 23.5065 -3.81907 3.84062
head 13.2987 -1.01159 0.587403
rclavicle 1.59028e-014 -3.04141e-014
rhumerus 32.1959 0.185515 -73.432
rradius 37.2828
rwrist 31.3162
rhand -18.5866 -16.0202
rfingers 7.12502
rthumb 7.70421 -45.8599
lclavicle 1.59028e-014 -3.04141e-014
lhumerus 26.428 -7.5919 71.6669
lradius 38.8759
lwrist -36.9729
lhand -13.1348 15.9528
lfingers 7.12502
lthumb 12.9632 45.5301
rfemur -109.108 1.05939 20.5586
rtibia 113.316
rfoot -13.5686 -24.0618
rtoes -7.89401
lfemur -59.1654 20.2562 -18.4697
ltibia 137.186
lfoot 0.358471 10.0449
ltoes -6.43392
305
root 2.53882 9.07955 4.04512 -164.202 -11.0026 174.946
lowerback 45.8652 2.08625 3.36269
upperback 17.0662 -2.75801 3.69996
thorax -1.74141 -3.90693 3.34789
lowerneck -32.023 -1.30536 1.32701
upperneck 23.315 -3.76301 3.73697
head 13.1728 -0.979031 0.502488
rclavicle 7.95139e-015 1.07344e-014
rhumerus 32.0449 0.142342 -74.4208
rradius 36.9735
rwrist 32.3865
rhand -19.163 -16.2372
rfingers 7.12502
rthumb 7.14778 -46.0965
lclavicle 7.95139e-015 1.07344e-014
lhumerus 27.2612 -7.24686 71.5898
lradius 37.6819
lwrist -37.4166
lhand -12.6044 15.5059
lfingers 7.12502
lthumb 13.4745 45.05
rfemur -108.882 1.168 20.5823
rtibia 113.579
rfoot -14.4466 -24.2882
rtoes -7.67914
lfemur -59.2757 20.0834 -18.4305
ltibia 136.755
lfoot 1.12066 8.72978
ltoes -5.57523
306
root 2.55334 9.13432 3.91639 -163.687 -10.9633 174.76
lowerback 45.8073 1.92828 3.33672
upperback 16.9717 -2.89944 3.56299
thorax -1.83512 -3.939 3.27154
lowerneck -31.764 -1.1649 1.59506
upperneck 23.1193 -3.65662 3.67127
head 13.0374 -0.927006 0.453947
rclavicle -2.06736e-014 5.08889e-014
rhumerus 31.8164 0.0833519 -75.5361
rradius 36.7225
rwrist 33.4207
rhand -19.6993 -16.3149
rfingers 7.12502
rthumb 6.63011 -46.1912
lclavicle -2.06736e-014 5.08889e-014
lhumerus 28.026 -6.79035 71.5443
lradius 36.3673
lwrist -37.9464
lhand -12.0189 15.0305
lfingers 7.12502
lthumb 14.0387 44.5364
rfemur -108.625 1.27329 20.6072
rtibia 113.807
rfoot -15.302 -24.4919
rtoes -7.6207
lfemur -59.402 19.8642 -18.4333
ltibia 136.311
lfoot 1.95638 7.40108
ltoes -4.71834
307
root 2.56685 9.19016 3.78897 -163.183 -10.926 174.574
lowerback 45.7539 1.78024 3.33844
upperback 16.9001 -3.02726 3.40641
thorax -1.90547 -3.96423 3.15395
lowerneck -31.611 -1.04412 1.92023
upperneck 22.9497 -3.61098 3.61311
head 12.9333 -0.893051 0.386985
rclavicle 3.97569e-015 9.14409e-015
rhumerus 31.5184 -0.201644 -76.7812
rradius 36.5633
rwrist 34.3763
rhand -20.1824 -16.2276
rfingers 7.12502
rthumb 6.16369 -46.1179
lclavicle 3.97569e-015 9.14409e-015
lhumerus 28.8693 -6.43555 71.4574
lradius 34.9579
lwrist -38.5232
lhand -11.3879 14.5863
lfingers 7.12502
lthumb 14.6468 44.0491
rfemur -108.336 1.34583 20.6436
rtibia 114.002
rfoot -16.1278 -24.6638
rtoes -7.62353
lfemur -59.5695 19.5426 -18.4599
ltibia 135.865
lfoot 2.87871 6.02387
ltoes -3.91529
308
root 2.57966 9.2467 3.66236 -162.693 -10.8716 174.4
lowerback 45.6968 1.63714 3.32683
upperback 16.8485 -3.16721 3.23726
thorax -1.95327 -3.99871 3.03289
lowerneck -31.5563 -0.926291 2.23488
upperneck 22.8234 -3.57801 3.57987
head 12.8664 -0.859861 0.329045
rclavicle -3.49861e-014 2.70347e-014
rhumerus 31.1836 -0.548617 -78.0687
rradius 36.4984
rwrist 35.1566
rhand -20.5574 -16.0086
rfingers 7.12502
rthumb 5.80172 -45.9092
lclavicle -3.49861e-014 2.70347e-014
lhumerus 29.7063 -6.12272 71.3204
lradius 33.5197
lwrist -39.1196
lhand -10.7773 14.2481
lfingers 7.12502
lthumb 15.235 43.6671
rfemur -108.016 1.4181 20.6922
rtibia 114.162
rfoot -16.9013 -24.819
rtoes -7.53638
lfemur -59.768 19.1973 -18.4712
ltibia 135.421
lfoot 3.82346 4.5392
ltoes -3.287
309
root 2.59238 9.30346 3.53699 -162.219 -10.8008 174.247
lowerback 45.6251 1.53739 3.27514
upperback 16.8316 -3.28941 3.10736
thorax -1.95799 -4.03561 2.96424
lowerneck -31.6021 -0.830183 2.49093
upperneck 22.7103 -3.55698 3.56669
head 12.825 -0.83229 0.286173
rclavicle -3.26007e-014 1.51076e-014
rhumerus 30.8487 -0.924237 -79.2752
rradius 36.5127
rwrist 35.7862
rhand -20.8625 -15.6455
rfingers 7.12502
rthumb 5.50709 -45.5539
lclavicle -3.26007e-014 1.51076e-014
lhumerus 30.537 -5.90864 71.1553
lradius 32.1534
lwrist -39.5818
lhand -10.2008 14.1174
lfingers 7.12502
lthumb 15.7903 43.4933
rfemur -107.668 1.50256 20.7581
rtibia 114.286
rfoot -17.6539 -24.9567
rtoes -7.33578
lfemur -60.0195 18.8482 -18.4415
ltibia 134.993
lfoot 4.7726 2.91317
ltoes -2.73496
310
root 2.60497 9.36004 3.41263 -161.768 -10.7078 174.117
lowerback 45.5478 1.46836 3.2308
upperback 16.8434 -3.3844 2.96962
thorax -1.9304 -4.06236 2.87109
lowerneck -31.7333 -0.745961 2.78087
upperneck 22.6133 -3.57481 3.55684
head 12.8056 -0.816684 0.23153
rclavicle 2.38542e-015 4.70126e-014
rhumerus 30.4958 -1.36552 -80.4233
rradius 36.5821
rwrist 36.2887
rhand -21.1 -15.1853
rfingers 7.12502
rthumb 5.27775 -45.0996
lclavicle 2.38542e-015 4.70126e-014
lhumerus 31.33 -5.88249 70.8916
lradius 30.9277
lwrist -39.9708
lhand -9.64316 14.2384
lfingers 7.12502
lthumb 16.3273 43.5711
rfemur -107.29 1.60256 20.8439
rtibia 114.38
rfoot -18.3889 -25.0746
rtoes -6.96186
lfemur -60.3193 18.512 -18.3618
ltibia 134.589
lfoot 5.63302 1.15686
ltoes -2.28951
311
root 2.61773 9.41557 3.28973 -161.324 -10.5817 174.009
lowerback 45.4455 1.4302 3.16426
upperback 16.8766 -3.46021 2.83022
thorax -1.87386 -4.0835 2.77762
lowerneck -31.9312 -0.6672 3.061
upperneck 22.5455 -3.60557 3.55828
head 12.8107 -0.804435 0.180405
rclavicle -7.15625e-015 1.98785e-016
rhumerus 30.1401 -1.77479 -81.4469
rradius 36.6864
rwrist 36.688
rhand -21.2724 -14.66
rfingers 7.12502
rthumb 5.11135 -44.5783
lclavicle -7.15625e-015 1.98785e-016
lhumerus 32.0338 -5.96069 70.5634
lradius 29.8814
lwrist -40.3393
lhand -9.03978 14.6117
lfingers 7.12502
lthumb 16.9081 43.8957
rfemur -106.914 1.73892 20.9423
rtibia 114.446
rfoot -19.1127 -25.1761
rtoes -6.51989
lfemur -60.7009 18.2306 -18.2352
ltibia 134.232
lfoot 6.29739 -0.681966
ltoes -2.08005
312
root 2.62976 9.47026 3.16823 -160.898 -10.4296 173.906
lowerback 45.3442 1.392 2.96667
upperback 16.8846 -3.58832 2.74165
thorax -1.84163 -4.14168 2.82578
lowerneck -32.0022 -0.553917 3.18239
upperneck 22.4585 -3.50415 3.55615
head 12.7863 -0.751649 0.179663
rclavicle -2.26615e-014 1.58034e-014
rhumerus 29.7621 -1.83262 -82.215
rradius 36.8108
rwrist 36.9458
rhand -21.3781 -14.1357
rfingers 7.12502
rthumb 5.00924 -44.0565
lclavicle -2.26615e-014 1.58034e-014
lhumerus 32.4501 -5.72634 70.4505
lradius 28.9668
lwrist -41.0317
lhand -8.36089 15.1019
lfingers 7.12502
lthumb 17.5616 44.3287
rfemur -106.526 1.8801 21.0432
rtibia 114.491
rfoot -19.818 -25.256
rtoes -6.07102
lfemur -61.1435 17.9423 -18.1034
ltibia 133.928
lfoot 6.67183 -2.43747
ltoes -2.09776
